<mxfile host="app.diagrams.net" agent="Mozilla/5.0 (Macintosh; Intel Mac OS X 10_15_7) AppleWebKit/537.36 (KHTML, like Gecko) Chrome/127.0.0.0 Safari/537.36" version="24.8.0">
  <diagram name="Page-1" id="9f46799a-70d6-7492-0946-bef42562c5a5">
    <mxGraphModel dx="1084" dy="919" grid="1" gridSize="10" guides="1" tooltips="1" connect="1" arrows="1" fold="1" page="1" pageScale="1" pageWidth="1100" pageHeight="850" background="none" math="0" shadow="0">
      <root>
        <mxCell id="0" />
        <mxCell id="1" parent="0" />
        <mxCell id="-KuvVb1X6CifRVsnlQdJ-97" value="新闻媒体机构" style="swimlane;fontStyle=1;align=center;verticalAlign=top;childLayout=stackLayout;horizontal=1;startSize=25.5;horizontalStack=0;resizeParent=1;resizeParentMax=0;resizeLast=0;collapsible=0;marginBottom=0;" vertex="1" parent="1">
          <mxGeometry x="516" y="320" width="133" height="241.5" as="geometry" />
        </mxCell>
        <mxCell id="-KuvVb1X6CifRVsnlQdJ-98" value="+int 媒体编号" style="text;strokeColor=none;fillColor=none;align=left;verticalAlign=top;spacingLeft=4;spacingRight=4;overflow=hidden;rotatable=0;points=[[0,0.5],[1,0.5]];portConstraint=eastwest;" vertex="1" parent="-KuvVb1X6CifRVsnlQdJ-97">
          <mxGeometry y="25.5" width="133" height="26" as="geometry" />
        </mxCell>
        <mxCell id="-KuvVb1X6CifRVsnlQdJ-99" value="+string 媒体名称" style="text;strokeColor=none;fillColor=none;align=left;verticalAlign=top;spacingLeft=4;spacingRight=4;overflow=hidden;rotatable=0;points=[[0,0.5],[1,0.5]];portConstraint=eastwest;" vertex="1" parent="-KuvVb1X6CifRVsnlQdJ-97">
          <mxGeometry y="51.5" width="133" height="26" as="geometry" />
        </mxCell>
        <mxCell id="-KuvVb1X6CifRVsnlQdJ-100" value="+string 媒体链接" style="text;strokeColor=none;fillColor=none;align=left;verticalAlign=top;spacingLeft=4;spacingRight=4;overflow=hidden;rotatable=0;points=[[0,0.5],[1,0.5]];portConstraint=eastwest;" vertex="1" parent="-KuvVb1X6CifRVsnlQdJ-97">
          <mxGeometry y="77.5" width="133" height="26" as="geometry" />
        </mxCell>
        <mxCell id="-KuvVb1X6CifRVsnlQdJ-101" value="+string 所在区域" style="text;strokeColor=none;fillColor=none;align=left;verticalAlign=top;spacingLeft=4;spacingRight=4;overflow=hidden;rotatable=0;points=[[0,0.5],[1,0.5]];portConstraint=eastwest;" vertex="1" parent="-KuvVb1X6CifRVsnlQdJ-97">
          <mxGeometry y="103.5" width="133" height="26" as="geometry" />
        </mxCell>
        <mxCell id="-KuvVb1X6CifRVsnlQdJ-102" style="line;strokeWidth=1;fillColor=none;align=left;verticalAlign=middle;spacingTop=-1;spacingLeft=3;spacingRight=3;rotatable=0;labelPosition=right;points=[];portConstraint=eastwest;strokeColor=inherit;" vertex="1" parent="-KuvVb1X6CifRVsnlQdJ-97">
          <mxGeometry y="129.5" width="133" height="8" as="geometry" />
        </mxCell>
        <mxCell id="-KuvVb1X6CifRVsnlQdJ-103" value="+新增()" style="text;strokeColor=none;fillColor=none;align=left;verticalAlign=top;spacingLeft=4;spacingRight=4;overflow=hidden;rotatable=0;points=[[0,0.5],[1,0.5]];portConstraint=eastwest;" vertex="1" parent="-KuvVb1X6CifRVsnlQdJ-97">
          <mxGeometry y="137.5" width="133" height="26" as="geometry" />
        </mxCell>
        <mxCell id="-KuvVb1X6CifRVsnlQdJ-104" value="+编辑()" style="text;strokeColor=none;fillColor=none;align=left;verticalAlign=top;spacingLeft=4;spacingRight=4;overflow=hidden;rotatable=0;points=[[0,0.5],[1,0.5]];portConstraint=eastwest;" vertex="1" parent="-KuvVb1X6CifRVsnlQdJ-97">
          <mxGeometry y="163.5" width="133" height="26" as="geometry" />
        </mxCell>
        <mxCell id="-KuvVb1X6CifRVsnlQdJ-105" value="+删除()" style="text;strokeColor=none;fillColor=none;align=left;verticalAlign=top;spacingLeft=4;spacingRight=4;overflow=hidden;rotatable=0;points=[[0,0.5],[1,0.5]];portConstraint=eastwest;" vertex="1" parent="-KuvVb1X6CifRVsnlQdJ-97">
          <mxGeometry y="189.5" width="133" height="26" as="geometry" />
        </mxCell>
        <mxCell id="-KuvVb1X6CifRVsnlQdJ-106" value="+获取媒体信息()" style="text;strokeColor=none;fillColor=none;align=left;verticalAlign=top;spacingLeft=4;spacingRight=4;overflow=hidden;rotatable=0;points=[[0,0.5],[1,0.5]];portConstraint=eastwest;" vertex="1" parent="-KuvVb1X6CifRVsnlQdJ-97">
          <mxGeometry y="215.5" width="133" height="26" as="geometry" />
        </mxCell>
        <mxCell id="-KuvVb1X6CifRVsnlQdJ-107" value="新闻分类" style="swimlane;fontStyle=1;align=center;verticalAlign=top;childLayout=stackLayout;horizontal=1;startSize=25.5;horizontalStack=0;resizeParent=1;resizeParentMax=0;resizeLast=0;collapsible=0;marginBottom=0;" vertex="1" parent="1">
          <mxGeometry x="516" y="51.73000000000002" width="133" height="241.5" as="geometry" />
        </mxCell>
        <mxCell id="-KuvVb1X6CifRVsnlQdJ-108" value="+int 分类编号" style="text;strokeColor=none;fillColor=none;align=left;verticalAlign=top;spacingLeft=4;spacingRight=4;overflow=hidden;rotatable=0;points=[[0,0.5],[1,0.5]];portConstraint=eastwest;" vertex="1" parent="-KuvVb1X6CifRVsnlQdJ-107">
          <mxGeometry y="25.5" width="133" height="26" as="geometry" />
        </mxCell>
        <mxCell id="-KuvVb1X6CifRVsnlQdJ-109" value="+string 分类名称" style="text;strokeColor=none;fillColor=none;align=left;verticalAlign=top;spacingLeft=4;spacingRight=4;overflow=hidden;rotatable=0;points=[[0,0.5],[1,0.5]];portConstraint=eastwest;" vertex="1" parent="-KuvVb1X6CifRVsnlQdJ-107">
          <mxGeometry y="51.5" width="133" height="26" as="geometry" />
        </mxCell>
        <mxCell id="-KuvVb1X6CifRVsnlQdJ-110" value="+bool 是否显示" style="text;strokeColor=none;fillColor=none;align=left;verticalAlign=top;spacingLeft=4;spacingRight=4;overflow=hidden;rotatable=0;points=[[0,0.5],[1,0.5]];portConstraint=eastwest;" vertex="1" parent="-KuvVb1X6CifRVsnlQdJ-107">
          <mxGeometry y="77.5" width="133" height="26" as="geometry" />
        </mxCell>
        <mxCell id="-KuvVb1X6CifRVsnlQdJ-111" value="+int 显示顺序" style="text;strokeColor=none;fillColor=none;align=left;verticalAlign=top;spacingLeft=4;spacingRight=4;overflow=hidden;rotatable=0;points=[[0,0.5],[1,0.5]];portConstraint=eastwest;" vertex="1" parent="-KuvVb1X6CifRVsnlQdJ-107">
          <mxGeometry y="103.5" width="133" height="26" as="geometry" />
        </mxCell>
        <mxCell id="-KuvVb1X6CifRVsnlQdJ-112" style="line;strokeWidth=1;fillColor=none;align=left;verticalAlign=middle;spacingTop=-1;spacingLeft=3;spacingRight=3;rotatable=0;labelPosition=right;points=[];portConstraint=eastwest;strokeColor=inherit;" vertex="1" parent="-KuvVb1X6CifRVsnlQdJ-107">
          <mxGeometry y="129.5" width="133" height="8" as="geometry" />
        </mxCell>
        <mxCell id="-KuvVb1X6CifRVsnlQdJ-113" value="+新增()" style="text;strokeColor=none;fillColor=none;align=left;verticalAlign=top;spacingLeft=4;spacingRight=4;overflow=hidden;rotatable=0;points=[[0,0.5],[1,0.5]];portConstraint=eastwest;" vertex="1" parent="-KuvVb1X6CifRVsnlQdJ-107">
          <mxGeometry y="137.5" width="133" height="26" as="geometry" />
        </mxCell>
        <mxCell id="-KuvVb1X6CifRVsnlQdJ-114" value="+编辑()" style="text;strokeColor=none;fillColor=none;align=left;verticalAlign=top;spacingLeft=4;spacingRight=4;overflow=hidden;rotatable=0;points=[[0,0.5],[1,0.5]];portConstraint=eastwest;" vertex="1" parent="-KuvVb1X6CifRVsnlQdJ-107">
          <mxGeometry y="163.5" width="133" height="26" as="geometry" />
        </mxCell>
        <mxCell id="-KuvVb1X6CifRVsnlQdJ-115" value="+删除()" style="text;strokeColor=none;fillColor=none;align=left;verticalAlign=top;spacingLeft=4;spacingRight=4;overflow=hidden;rotatable=0;points=[[0,0.5],[1,0.5]];portConstraint=eastwest;" vertex="1" parent="-KuvVb1X6CifRVsnlQdJ-107">
          <mxGeometry y="189.5" width="133" height="26" as="geometry" />
        </mxCell>
        <mxCell id="-KuvVb1X6CifRVsnlQdJ-116" value="+获取分类信息()" style="text;strokeColor=none;fillColor=none;align=left;verticalAlign=top;spacingLeft=4;spacingRight=4;overflow=hidden;rotatable=0;points=[[0,0.5],[1,0.5]];portConstraint=eastwest;" vertex="1" parent="-KuvVb1X6CifRVsnlQdJ-107">
          <mxGeometry y="215.5" width="133" height="26" as="geometry" />
        </mxCell>
        <mxCell id="-KuvVb1X6CifRVsnlQdJ-117" value="媒体分类" style="swimlane;fontStyle=1;align=center;verticalAlign=top;childLayout=stackLayout;horizontal=1;startSize=24.576923076923077;horizontalStack=0;resizeParent=1;resizeParentMax=0;resizeLast=0;collapsible=0;marginBottom=0;" vertex="1" parent="1">
          <mxGeometry x="870" y="140" width="165" height="332.5769230769231" as="geometry" />
        </mxCell>
        <mxCell id="-KuvVb1X6CifRVsnlQdJ-118" value="+int 媒体分类编号" style="text;strokeColor=none;fillColor=none;align=left;verticalAlign=top;spacingLeft=4;spacingRight=4;overflow=hidden;rotatable=0;points=[[0,0.5],[1,0.5]];portConstraint=eastwest;" vertex="1" parent="-KuvVb1X6CifRVsnlQdJ-117">
          <mxGeometry y="24.576923076923077" width="165" height="25" as="geometry" />
        </mxCell>
        <mxCell id="-KuvVb1X6CifRVsnlQdJ-119" value="+int 媒体编号" style="text;strokeColor=none;fillColor=none;align=left;verticalAlign=top;spacingLeft=4;spacingRight=4;overflow=hidden;rotatable=0;points=[[0,0.5],[1,0.5]];portConstraint=eastwest;" vertex="1" parent="-KuvVb1X6CifRVsnlQdJ-117">
          <mxGeometry y="49.57692307692308" width="165" height="25" as="geometry" />
        </mxCell>
        <mxCell id="-KuvVb1X6CifRVsnlQdJ-120" value="+string 媒体名称" style="text;strokeColor=none;fillColor=none;align=left;verticalAlign=top;spacingLeft=4;spacingRight=4;overflow=hidden;rotatable=0;points=[[0,0.5],[1,0.5]];portConstraint=eastwest;" vertex="1" parent="-KuvVb1X6CifRVsnlQdJ-117">
          <mxGeometry y="74.57692307692308" width="165" height="25" as="geometry" />
        </mxCell>
        <mxCell id="-KuvVb1X6CifRVsnlQdJ-121" value="+string 原分类名称" style="text;strokeColor=none;fillColor=none;align=left;verticalAlign=top;spacingLeft=4;spacingRight=4;overflow=hidden;rotatable=0;points=[[0,0.5],[1,0.5]];portConstraint=eastwest;" vertex="1" parent="-KuvVb1X6CifRVsnlQdJ-117">
          <mxGeometry y="99.57692307692308" width="165" height="25" as="geometry" />
        </mxCell>
        <mxCell id="-KuvVb1X6CifRVsnlQdJ-122" value="+int 标准分类编号" style="text;strokeColor=none;fillColor=none;align=left;verticalAlign=top;spacingLeft=4;spacingRight=4;overflow=hidden;rotatable=0;points=[[0,0.5],[1,0.5]];portConstraint=eastwest;" vertex="1" parent="-KuvVb1X6CifRVsnlQdJ-117">
          <mxGeometry y="124.57692307692308" width="165" height="25" as="geometry" />
        </mxCell>
        <mxCell id="-KuvVb1X6CifRVsnlQdJ-123" value="+string 标准分类名称" style="text;strokeColor=none;fillColor=none;align=left;verticalAlign=top;spacingLeft=4;spacingRight=4;overflow=hidden;rotatable=0;points=[[0,0.5],[1,0.5]];portConstraint=eastwest;" vertex="1" parent="-KuvVb1X6CifRVsnlQdJ-117">
          <mxGeometry y="149.5769230769231" width="165" height="25" as="geometry" />
        </mxCell>
        <mxCell id="-KuvVb1X6CifRVsnlQdJ-124" value="+string 分类链接" style="text;strokeColor=none;fillColor=none;align=left;verticalAlign=top;spacingLeft=4;spacingRight=4;overflow=hidden;rotatable=0;points=[[0,0.5],[1,0.5]];portConstraint=eastwest;" vertex="1" parent="-KuvVb1X6CifRVsnlQdJ-117">
          <mxGeometry y="174.5769230769231" width="165" height="25" as="geometry" />
        </mxCell>
        <mxCell id="-KuvVb1X6CifRVsnlQdJ-125" value="+string 分类状态" style="text;strokeColor=none;fillColor=none;align=left;verticalAlign=top;spacingLeft=4;spacingRight=4;overflow=hidden;rotatable=0;points=[[0,0.5],[1,0.5]];portConstraint=eastwest;" vertex="1" parent="-KuvVb1X6CifRVsnlQdJ-117">
          <mxGeometry y="199.5769230769231" width="165" height="25" as="geometry" />
        </mxCell>
        <mxCell id="-KuvVb1X6CifRVsnlQdJ-126" style="line;strokeWidth=1;fillColor=none;align=left;verticalAlign=middle;spacingTop=-1;spacingLeft=3;spacingRight=3;rotatable=0;labelPosition=right;points=[];portConstraint=eastwest;strokeColor=inherit;" vertex="1" parent="-KuvVb1X6CifRVsnlQdJ-117">
          <mxGeometry y="224.5769230769231" width="165" height="8" as="geometry" />
        </mxCell>
        <mxCell id="-KuvVb1X6CifRVsnlQdJ-127" value="+新增()" style="text;strokeColor=none;fillColor=none;align=left;verticalAlign=top;spacingLeft=4;spacingRight=4;overflow=hidden;rotatable=0;points=[[0,0.5],[1,0.5]];portConstraint=eastwest;" vertex="1" parent="-KuvVb1X6CifRVsnlQdJ-117">
          <mxGeometry y="232.5769230769231" width="165" height="25" as="geometry" />
        </mxCell>
        <mxCell id="-KuvVb1X6CifRVsnlQdJ-128" value="+编辑()" style="text;strokeColor=none;fillColor=none;align=left;verticalAlign=top;spacingLeft=4;spacingRight=4;overflow=hidden;rotatable=0;points=[[0,0.5],[1,0.5]];portConstraint=eastwest;" vertex="1" parent="-KuvVb1X6CifRVsnlQdJ-117">
          <mxGeometry y="257.5769230769231" width="165" height="25" as="geometry" />
        </mxCell>
        <mxCell id="-KuvVb1X6CifRVsnlQdJ-129" value="+删除()" style="text;strokeColor=none;fillColor=none;align=left;verticalAlign=top;spacingLeft=4;spacingRight=4;overflow=hidden;rotatable=0;points=[[0,0.5],[1,0.5]];portConstraint=eastwest;" vertex="1" parent="-KuvVb1X6CifRVsnlQdJ-117">
          <mxGeometry y="282.5769230769231" width="165" height="25" as="geometry" />
        </mxCell>
        <mxCell id="-KuvVb1X6CifRVsnlQdJ-130" value="+获取媒体分类信息()" style="text;strokeColor=none;fillColor=none;align=left;verticalAlign=top;spacingLeft=4;spacingRight=4;overflow=hidden;rotatable=0;points=[[0,0.5],[1,0.5]];portConstraint=eastwest;" vertex="1" parent="-KuvVb1X6CifRVsnlQdJ-117">
          <mxGeometry y="307.5769230769231" width="165" height="25" as="geometry" />
        </mxCell>
        <mxCell id="-KuvVb1X6CifRVsnlQdJ-131" value="新闻信息" style="swimlane;fontStyle=1;align=center;verticalAlign=top;childLayout=stackLayout;horizontal=1;startSize=24.08823529411765;horizontalStack=0;resizeParent=1;resizeParentMax=0;resizeLast=0;collapsible=0;marginBottom=0;" vertex="1" parent="1">
          <mxGeometry x="862" y="610" width="181" height="416.0882352941177" as="geometry" />
        </mxCell>
        <mxCell id="-KuvVb1X6CifRVsnlQdJ-132" value="+int 新闻编号" style="text;strokeColor=none;fillColor=none;align=left;verticalAlign=top;spacingLeft=4;spacingRight=4;overflow=hidden;rotatable=0;points=[[0,0.5],[1,0.5]];portConstraint=eastwest;" vertex="1" parent="-KuvVb1X6CifRVsnlQdJ-131">
          <mxGeometry y="24.08823529411765" width="181" height="24" as="geometry" />
        </mxCell>
        <mxCell id="-KuvVb1X6CifRVsnlQdJ-133" value="+int 媒体分类编号" style="text;strokeColor=none;fillColor=none;align=left;verticalAlign=top;spacingLeft=4;spacingRight=4;overflow=hidden;rotatable=0;points=[[0,0.5],[1,0.5]];portConstraint=eastwest;" vertex="1" parent="-KuvVb1X6CifRVsnlQdJ-131">
          <mxGeometry y="48.08823529411765" width="181" height="24" as="geometry" />
        </mxCell>
        <mxCell id="-KuvVb1X6CifRVsnlQdJ-134" value="+string 新闻标题" style="text;strokeColor=none;fillColor=none;align=left;verticalAlign=top;spacingLeft=4;spacingRight=4;overflow=hidden;rotatable=0;points=[[0,0.5],[1,0.5]];portConstraint=eastwest;" vertex="1" parent="-KuvVb1X6CifRVsnlQdJ-131">
          <mxGeometry y="72.08823529411765" width="181" height="24" as="geometry" />
        </mxCell>
        <mxCell id="-KuvVb1X6CifRVsnlQdJ-135" value="+string 新闻链接哈希值" style="text;strokeColor=none;fillColor=none;align=left;verticalAlign=top;spacingLeft=4;spacingRight=4;overflow=hidden;rotatable=0;points=[[0,0.5],[1,0.5]];portConstraint=eastwest;" vertex="1" parent="-KuvVb1X6CifRVsnlQdJ-131">
          <mxGeometry y="96.08823529411765" width="181" height="24" as="geometry" />
        </mxCell>
        <mxCell id="-KuvVb1X6CifRVsnlQdJ-136" value="+string 新闻链接" style="text;strokeColor=none;fillColor=none;align=left;verticalAlign=top;spacingLeft=4;spacingRight=4;overflow=hidden;rotatable=0;points=[[0,0.5],[1,0.5]];portConstraint=eastwest;" vertex="1" parent="-KuvVb1X6CifRVsnlQdJ-131">
          <mxGeometry y="120.08823529411765" width="181" height="24" as="geometry" />
        </mxCell>
        <mxCell id="-KuvVb1X6CifRVsnlQdJ-137" value="+text 新闻内容" style="text;strokeColor=none;fillColor=none;align=left;verticalAlign=top;spacingLeft=4;spacingRight=4;overflow=hidden;rotatable=0;points=[[0,0.5],[1,0.5]];portConstraint=eastwest;" vertex="1" parent="-KuvVb1X6CifRVsnlQdJ-131">
          <mxGeometry y="144.08823529411765" width="181" height="24" as="geometry" />
        </mxCell>
        <mxCell id="-KuvVb1X6CifRVsnlQdJ-138" value="+string 发布时间" style="text;strokeColor=none;fillColor=none;align=left;verticalAlign=top;spacingLeft=4;spacingRight=4;overflow=hidden;rotatable=0;points=[[0,0.5],[1,0.5]];portConstraint=eastwest;" vertex="1" parent="-KuvVb1X6CifRVsnlQdJ-131">
          <mxGeometry y="168.08823529411765" width="181" height="24" as="geometry" />
        </mxCell>
        <mxCell id="-KuvVb1X6CifRVsnlQdJ-139" value="+string 处理状态" style="text;strokeColor=none;fillColor=none;align=left;verticalAlign=top;spacingLeft=4;spacingRight=4;overflow=hidden;rotatable=0;points=[[0,0.5],[1,0.5]];portConstraint=eastwest;" vertex="1" parent="-KuvVb1X6CifRVsnlQdJ-131">
          <mxGeometry y="192.08823529411765" width="181" height="24" as="geometry" />
        </mxCell>
        <mxCell id="-KuvVb1X6CifRVsnlQdJ-140" value="+string 处理结果" style="text;strokeColor=none;fillColor=none;align=left;verticalAlign=top;spacingLeft=4;spacingRight=4;overflow=hidden;rotatable=0;points=[[0,0.5],[1,0.5]];portConstraint=eastwest;" vertex="1" parent="-KuvVb1X6CifRVsnlQdJ-131">
          <mxGeometry y="216.08823529411765" width="181" height="24" as="geometry" />
        </mxCell>
        <mxCell id="-KuvVb1X6CifRVsnlQdJ-141" value="+timestamp 创建时间" style="text;strokeColor=none;fillColor=none;align=left;verticalAlign=top;spacingLeft=4;spacingRight=4;overflow=hidden;rotatable=0;points=[[0,0.5],[1,0.5]];portConstraint=eastwest;" vertex="1" parent="-KuvVb1X6CifRVsnlQdJ-131">
          <mxGeometry y="240.08823529411765" width="181" height="24" as="geometry" />
        </mxCell>
        <mxCell id="-KuvVb1X6CifRVsnlQdJ-142" value="+timestamp 更新时间" style="text;strokeColor=none;fillColor=none;align=left;verticalAlign=top;spacingLeft=4;spacingRight=4;overflow=hidden;rotatable=0;points=[[0,0.5],[1,0.5]];portConstraint=eastwest;" vertex="1" parent="-KuvVb1X6CifRVsnlQdJ-131">
          <mxGeometry y="264.0882352941177" width="181" height="24" as="geometry" />
        </mxCell>
        <mxCell id="-KuvVb1X6CifRVsnlQdJ-143" style="line;strokeWidth=1;fillColor=none;align=left;verticalAlign=middle;spacingTop=-1;spacingLeft=3;spacingRight=3;rotatable=0;labelPosition=right;points=[];portConstraint=eastwest;strokeColor=inherit;" vertex="1" parent="-KuvVb1X6CifRVsnlQdJ-131">
          <mxGeometry y="288.0882352941177" width="181" height="8" as="geometry" />
        </mxCell>
        <mxCell id="-KuvVb1X6CifRVsnlQdJ-144" value="+新增()" style="text;strokeColor=none;fillColor=none;align=left;verticalAlign=top;spacingLeft=4;spacingRight=4;overflow=hidden;rotatable=0;points=[[0,0.5],[1,0.5]];portConstraint=eastwest;" vertex="1" parent="-KuvVb1X6CifRVsnlQdJ-131">
          <mxGeometry y="296.0882352941177" width="181" height="24" as="geometry" />
        </mxCell>
        <mxCell id="-KuvVb1X6CifRVsnlQdJ-145" value="+编辑()" style="text;strokeColor=none;fillColor=none;align=left;verticalAlign=top;spacingLeft=4;spacingRight=4;overflow=hidden;rotatable=0;points=[[0,0.5],[1,0.5]];portConstraint=eastwest;" vertex="1" parent="-KuvVb1X6CifRVsnlQdJ-131">
          <mxGeometry y="320.0882352941177" width="181" height="24" as="geometry" />
        </mxCell>
        <mxCell id="-KuvVb1X6CifRVsnlQdJ-146" value="+删除()" style="text;strokeColor=none;fillColor=none;align=left;verticalAlign=top;spacingLeft=4;spacingRight=4;overflow=hidden;rotatable=0;points=[[0,0.5],[1,0.5]];portConstraint=eastwest;" vertex="1" parent="-KuvVb1X6CifRVsnlQdJ-131">
          <mxGeometry y="344.0882352941177" width="181" height="24" as="geometry" />
        </mxCell>
        <mxCell id="-KuvVb1X6CifRVsnlQdJ-147" value="+抓取新闻()" style="text;strokeColor=none;fillColor=none;align=left;verticalAlign=top;spacingLeft=4;spacingRight=4;overflow=hidden;rotatable=0;points=[[0,0.5],[1,0.5]];portConstraint=eastwest;" vertex="1" parent="-KuvVb1X6CifRVsnlQdJ-131">
          <mxGeometry y="368.0882352941177" width="181" height="24" as="geometry" />
        </mxCell>
        <mxCell id="-KuvVb1X6CifRVsnlQdJ-148" value="+处理新闻()" style="text;strokeColor=none;fillColor=none;align=left;verticalAlign=top;spacingLeft=4;spacingRight=4;overflow=hidden;rotatable=0;points=[[0,0.5],[1,0.5]];portConstraint=eastwest;" vertex="1" parent="-KuvVb1X6CifRVsnlQdJ-131">
          <mxGeometry y="392.0882352941177" width="181" height="24" as="geometry" />
        </mxCell>
        <mxCell id="-KuvVb1X6CifRVsnlQdJ-193" style="edgeStyle=orthogonalEdgeStyle;rounded=0;orthogonalLoop=1;jettySize=auto;html=1;" edge="1" parent="1" source="-KuvVb1X6CifRVsnlQdJ-149" target="-KuvVb1X6CifRVsnlQdJ-174">
          <mxGeometry relative="1" as="geometry" />
        </mxCell>
        <mxCell id="-KuvVb1X6CifRVsnlQdJ-149" value="用户" style="swimlane;fontStyle=1;align=center;verticalAlign=top;childLayout=stackLayout;horizontal=1;startSize=24.954545454545453;horizontalStack=0;resizeParent=1;resizeParentMax=0;resizeLast=0;collapsible=0;marginBottom=0;" vertex="1" parent="1">
          <mxGeometry x="80" y="51.730000000000004" width="217" height="282.95454545454544" as="geometry" />
        </mxCell>
        <mxCell id="-KuvVb1X6CifRVsnlQdJ-150" value="+int 用户编号" style="text;strokeColor=none;fillColor=none;align=left;verticalAlign=top;spacingLeft=4;spacingRight=4;overflow=hidden;rotatable=0;points=[[0,0.5],[1,0.5]];portConstraint=eastwest;" vertex="1" parent="-KuvVb1X6CifRVsnlQdJ-149">
          <mxGeometry y="24.954545454545453" width="217" height="25" as="geometry" />
        </mxCell>
        <mxCell id="-KuvVb1X6CifRVsnlQdJ-151" value="+string 用户邮箱" style="text;strokeColor=none;fillColor=none;align=left;verticalAlign=top;spacingLeft=4;spacingRight=4;overflow=hidden;rotatable=0;points=[[0,0.5],[1,0.5]];portConstraint=eastwest;" vertex="1" parent="-KuvVb1X6CifRVsnlQdJ-149">
          <mxGeometry y="49.95454545454545" width="217" height="25" as="geometry" />
        </mxCell>
        <mxCell id="-KuvVb1X6CifRVsnlQdJ-152" value="+string 手机号" style="text;strokeColor=none;fillColor=none;align=left;verticalAlign=top;spacingLeft=4;spacingRight=4;overflow=hidden;rotatable=0;points=[[0,0.5],[1,0.5]];portConstraint=eastwest;" vertex="1" parent="-KuvVb1X6CifRVsnlQdJ-149">
          <mxGeometry y="74.95454545454545" width="217" height="25" as="geometry" />
        </mxCell>
        <mxCell id="-KuvVb1X6CifRVsnlQdJ-153" value="+int 验证码" style="text;strokeColor=none;fillColor=none;align=left;verticalAlign=top;spacingLeft=4;spacingRight=4;overflow=hidden;rotatable=0;points=[[0,0.5],[1,0.5]];portConstraint=eastwest;" vertex="1" parent="-KuvVb1X6CifRVsnlQdJ-149">
          <mxGeometry y="99.95454545454545" width="217" height="25" as="geometry" />
        </mxCell>
        <mxCell id="-KuvVb1X6CifRVsnlQdJ-154" value="+json 喜爱分类" style="text;strokeColor=none;fillColor=none;align=left;verticalAlign=top;spacingLeft=4;spacingRight=4;overflow=hidden;rotatable=0;points=[[0,0.5],[1,0.5]];portConstraint=eastwest;" vertex="1" parent="-KuvVb1X6CifRVsnlQdJ-149">
          <mxGeometry y="124.95454545454545" width="217" height="25" as="geometry" />
        </mxCell>
        <mxCell id="-KuvVb1X6CifRVsnlQdJ-155" value="+timestamp 验证码发送时间" style="text;strokeColor=none;fillColor=none;align=left;verticalAlign=top;spacingLeft=4;spacingRight=4;overflow=hidden;rotatable=0;points=[[0,0.5],[1,0.5]];portConstraint=eastwest;" vertex="1" parent="-KuvVb1X6CifRVsnlQdJ-149">
          <mxGeometry y="149.95454545454544" width="217" height="25" as="geometry" />
        </mxCell>
        <mxCell id="-KuvVb1X6CifRVsnlQdJ-156" style="line;strokeWidth=1;fillColor=none;align=left;verticalAlign=middle;spacingTop=-1;spacingLeft=3;spacingRight=3;rotatable=0;labelPosition=right;points=[];portConstraint=eastwest;strokeColor=inherit;" vertex="1" parent="-KuvVb1X6CifRVsnlQdJ-149">
          <mxGeometry y="174.95454545454544" width="217" height="8" as="geometry" />
        </mxCell>
        <mxCell id="-KuvVb1X6CifRVsnlQdJ-157" value="+注册()" style="text;strokeColor=none;fillColor=none;align=left;verticalAlign=top;spacingLeft=4;spacingRight=4;overflow=hidden;rotatable=0;points=[[0,0.5],[1,0.5]];portConstraint=eastwest;" vertex="1" parent="-KuvVb1X6CifRVsnlQdJ-149">
          <mxGeometry y="182.95454545454544" width="217" height="25" as="geometry" />
        </mxCell>
        <mxCell id="-KuvVb1X6CifRVsnlQdJ-158" value="+登录()" style="text;strokeColor=none;fillColor=none;align=left;verticalAlign=top;spacingLeft=4;spacingRight=4;overflow=hidden;rotatable=0;points=[[0,0.5],[1,0.5]];portConstraint=eastwest;" vertex="1" parent="-KuvVb1X6CifRVsnlQdJ-149">
          <mxGeometry y="207.95454545454544" width="217" height="25" as="geometry" />
        </mxCell>
        <mxCell id="-KuvVb1X6CifRVsnlQdJ-159" value="+退出登录()" style="text;strokeColor=none;fillColor=none;align=left;verticalAlign=top;spacingLeft=4;spacingRight=4;overflow=hidden;rotatable=0;points=[[0,0.5],[1,0.5]];portConstraint=eastwest;" vertex="1" parent="-KuvVb1X6CifRVsnlQdJ-149">
          <mxGeometry y="232.95454545454544" width="217" height="25" as="geometry" />
        </mxCell>
        <mxCell id="-KuvVb1X6CifRVsnlQdJ-160" value="+更新喜好()" style="text;strokeColor=none;fillColor=none;align=left;verticalAlign=top;spacingLeft=4;spacingRight=4;overflow=hidden;rotatable=0;points=[[0,0.5],[1,0.5]];portConstraint=eastwest;" vertex="1" parent="-KuvVb1X6CifRVsnlQdJ-149">
          <mxGeometry y="257.95454545454544" width="217" height="25" as="geometry" />
        </mxCell>
        <mxCell id="-KuvVb1X6CifRVsnlQdJ-161" value="新闻摘要" style="swimlane;fontStyle=1;align=center;verticalAlign=top;childLayout=stackLayout;horizontal=1;startSize=24.75;horizontalStack=0;resizeParent=1;resizeParentMax=0;resizeLast=0;collapsible=0;marginBottom=0;" vertex="1" parent="1">
          <mxGeometry x="490" y="664.17" width="185" height="307.75" as="geometry" />
        </mxCell>
        <mxCell id="-KuvVb1X6CifRVsnlQdJ-162" value="+string 新闻链接哈希值" style="text;strokeColor=none;fillColor=none;align=left;verticalAlign=top;spacingLeft=4;spacingRight=4;overflow=hidden;rotatable=0;points=[[0,0.5],[1,0.5]];portConstraint=eastwest;" vertex="1" parent="-KuvVb1X6CifRVsnlQdJ-161">
          <mxGeometry y="24.75" width="185" height="25" as="geometry" />
        </mxCell>
        <mxCell id="-KuvVb1X6CifRVsnlQdJ-163" value="+string 新标题" style="text;strokeColor=none;fillColor=none;align=left;verticalAlign=top;spacingLeft=4;spacingRight=4;overflow=hidden;rotatable=0;points=[[0,0.5],[1,0.5]];portConstraint=eastwest;" vertex="1" parent="-KuvVb1X6CifRVsnlQdJ-161">
          <mxGeometry y="49.75" width="185" height="25" as="geometry" />
        </mxCell>
        <mxCell id="-KuvVb1X6CifRVsnlQdJ-164" value="+json 新闻标签" style="text;strokeColor=none;fillColor=none;align=left;verticalAlign=top;spacingLeft=4;spacingRight=4;overflow=hidden;rotatable=0;points=[[0,0.5],[1,0.5]];portConstraint=eastwest;" vertex="1" parent="-KuvVb1X6CifRVsnlQdJ-161">
          <mxGeometry y="74.75" width="185" height="25" as="geometry" />
        </mxCell>
        <mxCell id="-KuvVb1X6CifRVsnlQdJ-165" value="+int 分类编号" style="text;strokeColor=none;fillColor=none;align=left;verticalAlign=top;spacingLeft=4;spacingRight=4;overflow=hidden;rotatable=0;points=[[0,0.5],[1,0.5]];portConstraint=eastwest;" vertex="1" parent="-KuvVb1X6CifRVsnlQdJ-161">
          <mxGeometry y="99.75" width="185" height="25" as="geometry" />
        </mxCell>
        <mxCell id="-KuvVb1X6CifRVsnlQdJ-166" value="+timestamp 创建时间戳" style="text;strokeColor=none;fillColor=none;align=left;verticalAlign=top;spacingLeft=4;spacingRight=4;overflow=hidden;rotatable=0;points=[[0,0.5],[1,0.5]];portConstraint=eastwest;" vertex="1" parent="-KuvVb1X6CifRVsnlQdJ-161">
          <mxGeometry y="124.75" width="185" height="25" as="geometry" />
        </mxCell>
        <mxCell id="-KuvVb1X6CifRVsnlQdJ-167" value="+timestamp 发布时间戳" style="text;strokeColor=none;fillColor=none;align=left;verticalAlign=top;spacingLeft=4;spacingRight=4;overflow=hidden;rotatable=0;points=[[0,0.5],[1,0.5]];portConstraint=eastwest;" vertex="1" parent="-KuvVb1X6CifRVsnlQdJ-161">
          <mxGeometry y="149.75" width="185" height="25" as="geometry" />
        </mxCell>
        <mxCell id="-KuvVb1X6CifRVsnlQdJ-168" value="+text 较短新闻摘要" style="text;strokeColor=none;fillColor=none;align=left;verticalAlign=top;spacingLeft=4;spacingRight=4;overflow=hidden;rotatable=0;points=[[0,0.5],[1,0.5]];portConstraint=eastwest;" vertex="1" parent="-KuvVb1X6CifRVsnlQdJ-161">
          <mxGeometry y="174.75" width="185" height="25" as="geometry" />
        </mxCell>
        <mxCell id="-KuvVb1X6CifRVsnlQdJ-169" value="+text 中等新闻摘要" style="text;strokeColor=none;fillColor=none;align=left;verticalAlign=top;spacingLeft=4;spacingRight=4;overflow=hidden;rotatable=0;points=[[0,0.5],[1,0.5]];portConstraint=eastwest;" vertex="1" parent="-KuvVb1X6CifRVsnlQdJ-161">
          <mxGeometry y="199.75" width="185" height="25" as="geometry" />
        </mxCell>
        <mxCell id="-KuvVb1X6CifRVsnlQdJ-170" value="+text 较长新闻摘要" style="text;strokeColor=none;fillColor=none;align=left;verticalAlign=top;spacingLeft=4;spacingRight=4;overflow=hidden;rotatable=0;points=[[0,0.5],[1,0.5]];portConstraint=eastwest;" vertex="1" parent="-KuvVb1X6CifRVsnlQdJ-161">
          <mxGeometry y="224.75" width="185" height="25" as="geometry" />
        </mxCell>
        <mxCell id="-KuvVb1X6CifRVsnlQdJ-171" style="line;strokeWidth=1;fillColor=none;align=left;verticalAlign=middle;spacingTop=-1;spacingLeft=3;spacingRight=3;rotatable=0;labelPosition=right;points=[];portConstraint=eastwest;strokeColor=inherit;" vertex="1" parent="-KuvVb1X6CifRVsnlQdJ-161">
          <mxGeometry y="249.75" width="185" height="8" as="geometry" />
        </mxCell>
        <mxCell id="-KuvVb1X6CifRVsnlQdJ-172" value="+按时间查询()" style="text;strokeColor=none;fillColor=none;align=left;verticalAlign=top;spacingLeft=4;spacingRight=4;overflow=hidden;rotatable=0;points=[[0,0.5],[1,0.5]];portConstraint=eastwest;" vertex="1" parent="-KuvVb1X6CifRVsnlQdJ-161">
          <mxGeometry y="257.75" width="185" height="25" as="geometry" />
        </mxCell>
        <mxCell id="-KuvVb1X6CifRVsnlQdJ-173" value="+按内容搜索()" style="text;strokeColor=none;fillColor=none;align=left;verticalAlign=top;spacingLeft=4;spacingRight=4;overflow=hidden;rotatable=0;points=[[0,0.5],[1,0.5]];portConstraint=eastwest;" vertex="1" parent="-KuvVb1X6CifRVsnlQdJ-161">
          <mxGeometry y="282.75" width="185" height="25" as="geometry" />
        </mxCell>
        <mxCell id="-KuvVb1X6CifRVsnlQdJ-174" value="系统日志" style="swimlane;fontStyle=1;align=center;verticalAlign=top;childLayout=stackLayout;horizontal=1;startSize=24.75;horizontalStack=0;resizeParent=1;resizeParentMax=0;resizeLast=0;collapsible=0;marginBottom=0;" vertex="1" parent="1">
          <mxGeometry x="104" y="520" width="169" height="307.75" as="geometry" />
        </mxCell>
        <mxCell id="-KuvVb1X6CifRVsnlQdJ-175" value="+string 日志类型" style="text;strokeColor=none;fillColor=none;align=left;verticalAlign=top;spacingLeft=4;spacingRight=4;overflow=hidden;rotatable=0;points=[[0,0.5],[1,0.5]];portConstraint=eastwest;" vertex="1" parent="-KuvVb1X6CifRVsnlQdJ-174">
          <mxGeometry y="24.75" width="169" height="25" as="geometry" />
        </mxCell>
        <mxCell id="-KuvVb1X6CifRVsnlQdJ-176" value="+string 日志级别" style="text;strokeColor=none;fillColor=none;align=left;verticalAlign=top;spacingLeft=4;spacingRight=4;overflow=hidden;rotatable=0;points=[[0,0.5],[1,0.5]];portConstraint=eastwest;" vertex="1" parent="-KuvVb1X6CifRVsnlQdJ-174">
          <mxGeometry y="49.75" width="169" height="25" as="geometry" />
        </mxCell>
        <mxCell id="-KuvVb1X6CifRVsnlQdJ-177" value="+int 用户ID" style="text;strokeColor=none;fillColor=none;align=left;verticalAlign=top;spacingLeft=4;spacingRight=4;overflow=hidden;rotatable=0;points=[[0,0.5],[1,0.5]];portConstraint=eastwest;" vertex="1" parent="-KuvVb1X6CifRVsnlQdJ-174">
          <mxGeometry y="74.75" width="169" height="25" as="geometry" />
        </mxCell>
        <mxCell id="-KuvVb1X6CifRVsnlQdJ-178" value="+string 登录账号" style="text;strokeColor=none;fillColor=none;align=left;verticalAlign=top;spacingLeft=4;spacingRight=4;overflow=hidden;rotatable=0;points=[[0,0.5],[1,0.5]];portConstraint=eastwest;" vertex="1" parent="-KuvVb1X6CifRVsnlQdJ-174">
          <mxGeometry y="99.75" width="169" height="25" as="geometry" />
        </mxCell>
        <mxCell id="-KuvVb1X6CifRVsnlQdJ-179" value="+timestamp 日期时间" style="text;strokeColor=none;fillColor=none;align=left;verticalAlign=top;spacingLeft=4;spacingRight=4;overflow=hidden;rotatable=0;points=[[0,0.5],[1,0.5]];portConstraint=eastwest;" vertex="1" parent="-KuvVb1X6CifRVsnlQdJ-174">
          <mxGeometry y="124.75" width="169" height="25" as="geometry" />
        </mxCell>
        <mxCell id="-KuvVb1X6CifRVsnlQdJ-180" value="+string 操作模块" style="text;strokeColor=none;fillColor=none;align=left;verticalAlign=top;spacingLeft=4;spacingRight=4;overflow=hidden;rotatable=0;points=[[0,0.5],[1,0.5]];portConstraint=eastwest;" vertex="1" parent="-KuvVb1X6CifRVsnlQdJ-174">
          <mxGeometry y="149.75" width="169" height="25" as="geometry" />
        </mxCell>
        <mxCell id="-KuvVb1X6CifRVsnlQdJ-181" value="+string 操作详情" style="text;strokeColor=none;fillColor=none;align=left;verticalAlign=top;spacingLeft=4;spacingRight=4;overflow=hidden;rotatable=0;points=[[0,0.5],[1,0.5]];portConstraint=eastwest;" vertex="1" parent="-KuvVb1X6CifRVsnlQdJ-174">
          <mxGeometry y="174.75" width="169" height="25" as="geometry" />
        </mxCell>
        <mxCell id="-KuvVb1X6CifRVsnlQdJ-182" value="+string IP地址" style="text;strokeColor=none;fillColor=none;align=left;verticalAlign=top;spacingLeft=4;spacingRight=4;overflow=hidden;rotatable=0;points=[[0,0.5],[1,0.5]];portConstraint=eastwest;" vertex="1" parent="-KuvVb1X6CifRVsnlQdJ-174">
          <mxGeometry y="199.75" width="169" height="25" as="geometry" />
        </mxCell>
        <mxCell id="-KuvVb1X6CifRVsnlQdJ-183" value="+string 操作结果" style="text;strokeColor=none;fillColor=none;align=left;verticalAlign=top;spacingLeft=4;spacingRight=4;overflow=hidden;rotatable=0;points=[[0,0.5],[1,0.5]];portConstraint=eastwest;" vertex="1" parent="-KuvVb1X6CifRVsnlQdJ-174">
          <mxGeometry y="224.75" width="169" height="25" as="geometry" />
        </mxCell>
        <mxCell id="-KuvVb1X6CifRVsnlQdJ-184" style="line;strokeWidth=1;fillColor=none;align=left;verticalAlign=middle;spacingTop=-1;spacingLeft=3;spacingRight=3;rotatable=0;labelPosition=right;points=[];portConstraint=eastwest;strokeColor=inherit;" vertex="1" parent="-KuvVb1X6CifRVsnlQdJ-174">
          <mxGeometry y="249.75" width="169" height="8" as="geometry" />
        </mxCell>
        <mxCell id="-KuvVb1X6CifRVsnlQdJ-185" value="+筛选()" style="text;strokeColor=none;fillColor=none;align=left;verticalAlign=top;spacingLeft=4;spacingRight=4;overflow=hidden;rotatable=0;points=[[0,0.5],[1,0.5]];portConstraint=eastwest;" vertex="1" parent="-KuvVb1X6CifRVsnlQdJ-174">
          <mxGeometry y="257.75" width="169" height="25" as="geometry" />
        </mxCell>
        <mxCell id="-KuvVb1X6CifRVsnlQdJ-186" value="+导出()" style="text;strokeColor=none;fillColor=none;align=left;verticalAlign=top;spacingLeft=4;spacingRight=4;overflow=hidden;rotatable=0;points=[[0,0.5],[1,0.5]];portConstraint=eastwest;" vertex="1" parent="-KuvVb1X6CifRVsnlQdJ-174">
          <mxGeometry y="282.75" width="169" height="25" as="geometry" />
        </mxCell>
        <mxCell id="-KuvVb1X6CifRVsnlQdJ-187" value="&quot;1对多&quot;" style="curved=1;startArrow=none;endArrow=open;endSize=12;rounded=0;" edge="1" parent="1" source="-KuvVb1X6CifRVsnlQdJ-97" target="-KuvVb1X6CifRVsnlQdJ-117">
          <mxGeometry relative="1" as="geometry" />
        </mxCell>
        <mxCell id="-KuvVb1X6CifRVsnlQdJ-188" value="&quot;1对多&quot;" style="curved=1;startArrow=none;endArrow=open;endSize=12;rounded=0;" edge="1" parent="1" source="-KuvVb1X6CifRVsnlQdJ-107" target="-KuvVb1X6CifRVsnlQdJ-117">
          <mxGeometry relative="1" as="geometry" />
        </mxCell>
        <mxCell id="-KuvVb1X6CifRVsnlQdJ-189" value="&quot;1对多&quot;" style="curved=1;startArrow=none;endArrow=open;endSize=12;rounded=0;" edge="1" parent="1" source="-KuvVb1X6CifRVsnlQdJ-117" target="-KuvVb1X6CifRVsnlQdJ-131">
          <mxGeometry relative="1" as="geometry" />
        </mxCell>
        <mxCell id="-KuvVb1X6CifRVsnlQdJ-190" value="&quot;多对多&quot;" style="curved=1;startArrow=none;endArrow=open;endSize=12;rounded=0;entryDx=0;entryDy=0;exitX=1.014;exitY=0.773;exitDx=0;exitDy=0;exitPerimeter=0;" edge="1" parent="1" source="-KuvVb1X6CifRVsnlQdJ-154" target="-KuvVb1X6CifRVsnlQdJ-110">
          <mxGeometry relative="1" as="geometry">
            <mxPoint x="378" y="182.2245454545455" as="sourcePoint" />
            <mxPoint x="755" y="-79.99999999999997" as="targetPoint" />
          </mxGeometry>
        </mxCell>
        <mxCell id="-KuvVb1X6CifRVsnlQdJ-191" value="&quot;1对1&quot;" style="curved=1;startArrow=none;endArrow=open;endSize=12;rounded=0;" edge="1" parent="1" source="-KuvVb1X6CifRVsnlQdJ-131" target="-KuvVb1X6CifRVsnlQdJ-161">
          <mxGeometry relative="1" as="geometry" />
        </mxCell>
      </root>
    </mxGraphModel>
  </diagram>
</mxfile>
